<svg width="113" height="96" fill="none" xmlns="http://www.w3.org/2000/svg"><g opacity=".26"><mask id="a" maskUnits="userSpaceOnUse" x="11" y="0" width="11" height="11"><path d="M16.51 10.425c2.887 0 5.228-2.334 5.228-5.213C21.738 2.334 19.397 0 16.509 0c-2.887 0-5.228 2.334-5.228 5.212 0 2.88 2.34 5.213 5.228 5.213z" fill="url(#paint0_linear)"/></mask><g mask="url(#a)"><path d="M16.51 10.425c2.887 0 5.228-2.334 5.228-5.213C21.738 2.334 19.397 0 16.509 0c-2.887 0-5.228 2.334-5.228 5.212 0 2.88 2.34 5.213 5.228 5.213z" fill="url(#paint1_linear)"/></g><mask id="b" maskUnits="userSpaceOnUse" x="41" y="0" width="12" height="11"><path d="M46.79 10.425c2.888 0 5.229-2.334 5.229-5.213C52.019 2.334 49.679 0 46.79 0s-5.229 2.334-5.229 5.212c0 2.88 2.341 5.213 5.229 5.213z" fill="url(#paint2_linear)"/></mask><g mask="url(#b)"><path d="M46.79 10.425c2.888 0 5.229-2.334 5.229-5.213C52.019 2.334 49.679 0 46.79 0s-5.229 2.334-5.229 5.212c0 2.88 2.341 5.213 5.229 5.213z" fill="url(#paint3_linear)"/></g><mask id="c" maskUnits="userSpaceOnUse" x="71" y="0" width="12" height="11"><path d="M77.072 10.425c2.887 0 5.228-2.334 5.228-5.213C82.3 2.334 79.96 0 77.072 0s-5.229 2.334-5.229 5.212c0 2.88 2.341 5.213 5.229 5.213z" fill="url(#paint4_linear)"/></mask><g mask="url(#c)"><path d="M77.072 10.425c2.887 0 5.228-2.334 5.228-5.213C82.3 2.334 79.96 0 77.072 0s-5.229 2.334-5.229 5.212c0 2.88 2.341 5.213 5.229 5.213z" fill="url(#paint5_linear)"/></g><mask id="d" maskUnits="userSpaceOnUse" x="102" y="0" width="11" height="11"><path d="M107.353 10.425c2.887 0 5.228-2.334 5.228-5.213 0-2.878-2.341-5.212-5.228-5.212-2.888 0-5.229 2.334-5.229 5.212 0 2.88 2.341 5.213 5.229 5.213z" fill="url(#paint6_linear)"/></mask><g mask="url(#d)"><path d="M107.353 10.425c2.887 0 5.228-2.334 5.228-5.213 0-2.878-2.341-5.212-5.228-5.212-2.888 0-5.229 2.334-5.229 5.212 0 2.88 2.341 5.213 5.229 5.213z" fill="url(#paint7_linear)"/></g><mask id="e" maskUnits="userSpaceOnUse" x="11" y="26" width="11" height="11"><path d="M16.51 36.596c2.887 0 5.228-2.334 5.228-5.213 0-2.878-2.341-5.212-5.229-5.212-2.887 0-5.228 2.334-5.228 5.212 0 2.88 2.34 5.213 5.228 5.213z" fill="url(#paint8_linear)"/></mask><g mask="url(#e)"><path d="M16.51 36.596c2.887 0 5.228-2.334 5.228-5.213 0-2.878-2.341-5.212-5.229-5.212-2.887 0-5.228 2.334-5.228 5.212 0 2.88 2.34 5.213 5.228 5.213z" fill="url(#paint9_linear)"/></g><mask id="f" maskUnits="userSpaceOnUse" x="41" y="26" width="12" height="11"><path d="M46.79 36.596c2.888 0 5.229-2.334 5.229-5.213 0-2.878-2.34-5.212-5.228-5.212s-5.229 2.334-5.229 5.212c0 2.88 2.341 5.213 5.229 5.213z" fill="url(#paint10_linear)"/></mask><g mask="url(#f)"><path d="M46.79 36.596c2.888 0 5.229-2.334 5.229-5.213 0-2.878-2.34-5.212-5.228-5.212s-5.229 2.334-5.229 5.212c0 2.88 2.341 5.213 5.229 5.213z" fill="url(#paint11_linear)"/></g><mask id="g" maskUnits="userSpaceOnUse" x="71" y="26" width="12" height="11"><path d="M77.072 36.596c2.887 0 5.228-2.334 5.228-5.213 0-2.878-2.34-5.212-5.228-5.212s-5.229 2.334-5.229 5.212c0 2.88 2.341 5.213 5.229 5.213z" fill="url(#paint12_linear)"/></mask><g mask="url(#g)"><path d="M77.072 36.596c2.887 0 5.228-2.334 5.228-5.213 0-2.878-2.34-5.212-5.228-5.212s-5.229 2.334-5.229 5.212c0 2.88 2.341 5.213 5.229 5.213z" fill="url(#paint13_linear)"/></g><mask id="h" maskUnits="userSpaceOnUse" x="102" y="26" width="11" height="11"><path d="M107.353 36.596c2.887 0 5.228-2.334 5.228-5.213 0-2.878-2.341-5.212-5.228-5.212-2.888 0-5.229 2.334-5.229 5.212 0 2.88 2.341 5.213 5.229 5.213z" fill="url(#paint14_linear)"/></mask><g mask="url(#h)"><path d="M107.353 36.596c2.887 0 5.228-2.334 5.228-5.213 0-2.878-2.341-5.212-5.228-5.212-2.888 0-5.229 2.334-5.229 5.212 0 2.88 2.341 5.213 5.229 5.213z" fill="url(#paint15_linear)"/></g><mask id="i" maskUnits="userSpaceOnUse" x="11" y="52" width="11" height="11"><path d="M16.51 62.713c2.887 0 5.228-2.334 5.228-5.213s-2.341-5.212-5.229-5.212c-2.887 0-5.228 2.333-5.228 5.212 0 2.879 2.34 5.213 5.228 5.213z" fill="url(#paint16_linear)"/></mask><g mask="url(#i)"><path d="M16.51 62.713c2.887 0 5.228-2.334 5.228-5.213s-2.341-5.212-5.229-5.212c-2.887 0-5.228 2.333-5.228 5.212 0 2.879 2.34 5.213 5.228 5.213z" fill="url(#paint17_linear)"/></g><mask id="j" maskUnits="userSpaceOnUse" x="41" y="52" width="12" height="11"><path d="M46.79 62.713c2.888 0 5.229-2.334 5.229-5.213s-2.34-5.212-5.228-5.212-5.229 2.333-5.229 5.212c0 2.879 2.341 5.213 5.229 5.213z" fill="url(#paint18_linear)"/></mask><g mask="url(#j)"><path d="M46.79 62.713c2.888 0 5.229-2.334 5.229-5.213s-2.34-5.212-5.228-5.212-5.229 2.333-5.229 5.212c0 2.879 2.341 5.213 5.229 5.213z" fill="url(#paint19_linear)"/></g><mask id="k" maskUnits="userSpaceOnUse" x="71" y="52" width="12" height="11"><path d="M77.072 62.713c2.887 0 5.228-2.334 5.228-5.213s-2.34-5.212-5.228-5.212-5.229 2.333-5.229 5.212c0 2.879 2.341 5.213 5.229 5.213z" fill="url(#paint20_linear)"/></mask><g mask="url(#k)"><path d="M77.072 62.713c2.887 0 5.228-2.334 5.228-5.213s-2.34-5.212-5.228-5.212-5.229 2.333-5.229 5.212c0 2.879 2.341 5.213 5.229 5.213z" fill="url(#paint21_linear)"/></g><mask id="l" maskUnits="userSpaceOnUse" x="102" y="52" width="11" height="11"><path d="M107.353 62.713c2.887 0 5.228-2.334 5.228-5.213s-2.341-5.212-5.228-5.212c-2.888 0-5.229 2.333-5.229 5.212 0 2.879 2.341 5.213 5.229 5.213z" fill="url(#paint22_linear)"/></mask><g mask="url(#l)"><path d="M107.353 62.713c2.887 0 5.228-2.334 5.228-5.213s-2.341-5.212-5.228-5.212c-2.888 0-5.229 2.333-5.229 5.212 0 2.879 2.341 5.213 5.229 5.213z" fill="url(#paint23_linear)"/></g><mask id="m" maskUnits="userSpaceOnUse" x="11" y="78" width="11" height="11"><path d="M16.51 88.883c2.887 0 5.228-2.333 5.228-5.212 0-2.879-2.341-5.213-5.229-5.213-2.887 0-5.228 2.334-5.228 5.213s2.34 5.212 5.228 5.212z" fill="url(#paint24_linear)"/></mask><g mask="url(#m)"><path d="M16.51 88.883c2.887 0 5.228-2.333 5.228-5.212 0-2.879-2.341-5.213-5.229-5.213-2.887 0-5.228 2.334-5.228 5.213s2.34 5.212 5.228 5.212z" fill="url(#paint25_linear)"/></g><mask id="n" maskUnits="userSpaceOnUse" x="41" y="78" width="12" height="11"><path d="M46.79 88.883c2.888 0 5.229-2.333 5.229-5.212 0-2.879-2.34-5.213-5.228-5.213s-5.229 2.334-5.229 5.213 2.341 5.212 5.229 5.212z" fill="url(#paint26_linear)"/></mask><g mask="url(#n)"><path d="M46.79 88.883c2.888 0 5.229-2.333 5.229-5.212 0-2.879-2.34-5.213-5.228-5.213s-5.229 2.334-5.229 5.213 2.341 5.212 5.229 5.212z" fill="url(#paint27_linear)"/></g><mask id="o" maskUnits="userSpaceOnUse" x="71" y="78" width="12" height="11"><path d="M77.072 88.883c2.887 0 5.228-2.333 5.228-5.212 0-2.879-2.34-5.213-5.228-5.213s-5.229 2.334-5.229 5.213 2.341 5.212 5.229 5.212z" fill="url(#paint28_linear)"/></mask><g mask="url(#o)"><path d="M77.072 88.883c2.887 0 5.228-2.333 5.228-5.212 0-2.879-2.34-5.213-5.228-5.213s-5.229 2.334-5.229 5.213 2.341 5.212 5.229 5.212z" fill="url(#paint29_linear)"/></g><mask id="p" maskUnits="userSpaceOnUse" x="102" y="78" width="11" height="11"><path d="M107.353 88.883c2.887 0 5.228-2.333 5.228-5.212 0-2.879-2.341-5.213-5.228-5.213-2.888 0-5.229 2.334-5.229 5.213s2.341 5.212 5.229 5.212z" fill="url(#paint30_linear)"/></mask><g mask="url(#p)"><path d="M107.353 88.883c2.887 0 5.228-2.333 5.228-5.212 0-2.879-2.341-5.213-5.228-5.213-2.888 0-5.229 2.334-5.229 5.213s2.341 5.212 5.229 5.212z" fill="url(#paint31_linear)"/></g></g><defs><linearGradient id="paint1_linear" x1="66.277" y1="131.134" x2="-5.124" y2="-50.67" gradientUnits="userSpaceOnUse"><stop stop-color="#fff"/><stop offset="1" stop-color="#fff"/></linearGradient><linearGradient id="paint16_linear" x1="66.277" y1="183.421" x2="-5.124" y2="1.618" gradientUnits="userSpaceOnUse"><stop stop-color="#fff"/><stop offset="1" stop-color="#fff"/></linearGradient><linearGradient id="paint2_linear" x1="96.558" y1="131.134" x2="25.157" y2="-50.67" gradientUnits="userSpaceOnUse"><stop stop-color="#fff"/><stop offset="1" stop-color="#fff"/></linearGradient><linearGradient id="paint3_linear" x1="96.558" y1="131.134" x2="25.157" y2="-50.67" gradientUnits="userSpaceOnUse"><stop stop-color="#fff"/><stop offset="1" stop-color="#fff"/></linearGradient><linearGradient id="paint4_linear" x1="126.839" y1="131.134" x2="55.438" y2="-50.67" gradientUnits="userSpaceOnUse"><stop stop-color="#fff"/><stop offset="1" stop-color="#fff"/></linearGradient><linearGradient id="paint5_linear" x1="126.839" y1="131.134" x2="55.438" y2="-50.67" gradientUnits="userSpaceOnUse"><stop stop-color="#fff"/><stop offset="1" stop-color="#fff"/></linearGradient><linearGradient id="paint6_linear" x1="157.12" y1="131.134" x2="85.719" y2="-50.67" gradientUnits="userSpaceOnUse"><stop stop-color="#fff"/><stop offset="1" stop-color="#fff"/></linearGradient><linearGradient id="paint7_linear" x1="157.12" y1="131.134" x2="85.719" y2="-50.67" gradientUnits="userSpaceOnUse"><stop stop-color="#fff"/><stop offset="1" stop-color="#fff"/></linearGradient><linearGradient id="paint8_linear" x1="66.277" y1="157.303" x2="-5.123" y2="-24.499" gradientUnits="userSpaceOnUse"><stop stop-color="#fff"/><stop offset="1" stop-color="#fff"/></linearGradient><linearGradient id="paint9_linear" x1="66.277" y1="157.303" x2="-5.123" y2="-24.499" gradientUnits="userSpaceOnUse"><stop stop-color="#fff"/><stop offset="1" stop-color="#fff"/></linearGradient><linearGradient id="paint10_linear" x1="96.558" y1="157.303" x2="25.158" y2="-24.499" gradientUnits="userSpaceOnUse"><stop stop-color="#fff"/><stop offset="1" stop-color="#fff"/></linearGradient><linearGradient id="paint11_linear" x1="96.558" y1="157.303" x2="25.158" y2="-24.499" gradientUnits="userSpaceOnUse"><stop stop-color="#fff"/><stop offset="1" stop-color="#fff"/></linearGradient><linearGradient id="paint12_linear" x1="126.839" y1="157.303" x2="55.439" y2="-24.499" gradientUnits="userSpaceOnUse"><stop stop-color="#fff"/><stop offset="1" stop-color="#fff"/></linearGradient><linearGradient id="paint13_linear" x1="126.839" y1="157.303" x2="55.439" y2="-24.499" gradientUnits="userSpaceOnUse"><stop stop-color="#fff"/><stop offset="1" stop-color="#fff"/></linearGradient><linearGradient id="paint14_linear" x1="157.12" y1="157.303" x2="85.72" y2="-24.499" gradientUnits="userSpaceOnUse"><stop stop-color="#fff"/><stop offset="1" stop-color="#fff"/></linearGradient><linearGradient id="paint15_linear" x1="157.12" y1="157.303" x2="85.72" y2="-24.499" gradientUnits="userSpaceOnUse"><stop stop-color="#fff"/><stop offset="1" stop-color="#fff"/></linearGradient><linearGradient id="paint0_linear" x1="66.277" y1="131.134" x2="-5.124" y2="-50.67" gradientUnits="userSpaceOnUse"><stop stop-color="#fff"/><stop offset="1" stop-color="#fff"/></linearGradient><linearGradient id="paint17_linear" x1="66.277" y1="183.421" x2="-5.124" y2="1.618" gradientUnits="userSpaceOnUse"><stop stop-color="#fff"/><stop offset="1" stop-color="#fff"/></linearGradient><linearGradient id="paint18_linear" x1="96.558" y1="183.421" x2="25.157" y2="1.618" gradientUnits="userSpaceOnUse"><stop stop-color="#fff"/><stop offset="1" stop-color="#fff"/></linearGradient><linearGradient id="paint19_linear" x1="96.558" y1="183.421" x2="25.157" y2="1.618" gradientUnits="userSpaceOnUse"><stop stop-color="#fff"/><stop offset="1" stop-color="#fff"/></linearGradient><linearGradient id="paint20_linear" x1="126.839" y1="183.421" x2="55.438" y2="1.618" gradientUnits="userSpaceOnUse"><stop stop-color="#fff"/><stop offset="1" stop-color="#fff"/></linearGradient><linearGradient id="paint21_linear" x1="126.839" y1="183.421" x2="55.438" y2="1.618" gradientUnits="userSpaceOnUse"><stop stop-color="#fff"/><stop offset="1" stop-color="#fff"/></linearGradient><linearGradient id="paint22_linear" x1="157.12" y1="183.421" x2="85.719" y2="1.618" gradientUnits="userSpaceOnUse"><stop stop-color="#fff"/><stop offset="1" stop-color="#fff"/></linearGradient><linearGradient id="paint23_linear" x1="157.12" y1="183.421" x2="85.719" y2="1.618" gradientUnits="userSpaceOnUse"><stop stop-color="#fff"/><stop offset="1" stop-color="#fff"/></linearGradient><linearGradient id="paint24_linear" x1="66.277" y1="209.592" x2="-5.124" y2="27.788" gradientUnits="userSpaceOnUse"><stop stop-color="#fff"/><stop offset="1" stop-color="#fff"/></linearGradient><linearGradient id="paint25_linear" x1="66.277" y1="209.592" x2="-5.124" y2="27.788" gradientUnits="userSpaceOnUse"><stop stop-color="#fff"/><stop offset="1" stop-color="#fff"/></linearGradient><linearGradient id="paint26_linear" x1="96.558" y1="209.592" x2="25.157" y2="27.788" gradientUnits="userSpaceOnUse"><stop stop-color="#fff"/><stop offset="1" stop-color="#fff"/></linearGradient><linearGradient id="paint27_linear" x1="96.558" y1="209.592" x2="25.157" y2="27.788" gradientUnits="userSpaceOnUse"><stop stop-color="#fff"/><stop offset="1" stop-color="#fff"/></linearGradient><linearGradient id="paint28_linear" x1="126.839" y1="209.592" x2="55.438" y2="27.788" gradientUnits="userSpaceOnUse"><stop stop-color="#fff"/><stop offset="1" stop-color="#fff"/></linearGradient><linearGradient id="paint29_linear" x1="126.839" y1="209.592" x2="55.438" y2="27.788" gradientUnits="userSpaceOnUse"><stop stop-color="#fff"/><stop offset="1" stop-color="#fff"/></linearGradient><linearGradient id="paint30_linear" x1="157.12" y1="209.592" x2="85.719" y2="27.788" gradientUnits="userSpaceOnUse"><stop stop-color="#fff"/><stop offset="1" stop-color="#fff"/></linearGradient><linearGradient id="paint31_linear" x1="157.12" y1="209.592" x2="85.719" y2="27.788" gradientUnits="userSpaceOnUse"><stop stop-color="#fff"/><stop offset="1" stop-color="#fff"/></linearGradient></defs></svg>