<svg width="132" height="115" fill="none" xmlns="http://www.w3.org/2000/svg"><g opacity=".26"><mask id="a" maskUnits="userSpaceOnUse" x="0" y="0" width="11" height="11"><path d="M5.228 10.425c2.888 0 5.229-2.334 5.229-5.213C10.457 2.334 8.116 0 5.228 0 2.341 0 0 2.334 0 5.212c0 2.88 2.34 5.213 5.228 5.213z" fill="url(#paint0_linear)"/></mask><g mask="url(#a)"><path d="M5.228 10.425c2.888 0 5.229-2.334 5.229-5.213C10.457 2.334 8.116 0 5.228 0 2.341 0 0 2.334 0 5.212c0 2.88 2.34 5.213 5.228 5.213z" fill="url(#paint1_linear)"/></g><mask id="b" maskUnits="userSpaceOnUse" x="30" y="0" width="11" height="11"><path d="M35.51 10.425c2.887 0 5.228-2.334 5.228-5.213C40.738 2.334 38.397 0 35.51 0c-2.888 0-5.229 2.334-5.229 5.212 0 2.88 2.34 5.213 5.229 5.213z" fill="url(#paint2_linear)"/></mask><g mask="url(#b)"><path d="M35.51 10.425c2.887 0 5.228-2.334 5.228-5.213C40.738 2.334 38.397 0 35.51 0c-2.888 0-5.229 2.334-5.229 5.212 0 2.88 2.34 5.213 5.229 5.213z" fill="url(#paint3_linear)"/></g><mask id="c" maskUnits="userSpaceOnUse" x="60" y="0" width="12" height="11"><path d="M65.79 10.425c2.888 0 5.229-2.334 5.229-5.213C71.019 2.334 68.679 0 65.79 0c-2.887 0-5.228 2.334-5.228 5.212 0 2.88 2.341 5.213 5.228 5.213z" fill="url(#paint4_linear)"/></mask><g mask="url(#c)"><path d="M65.79 10.425c2.888 0 5.229-2.334 5.229-5.213C71.019 2.334 68.679 0 65.79 0c-2.887 0-5.228 2.334-5.228 5.212 0 2.88 2.341 5.213 5.228 5.213z" fill="url(#paint5_linear)"/></g><mask id="d" maskUnits="userSpaceOnUse" x="90" y="0" width="12" height="11"><path d="M96.072 10.425c2.887 0 5.228-2.334 5.228-5.213C101.3 2.334 98.96 0 96.072 0s-5.229 2.334-5.229 5.212c0 2.88 2.341 5.213 5.229 5.213z" fill="url(#paint6_linear)"/></mask><g mask="url(#d)"><path d="M96.072 10.425c2.887 0 5.228-2.334 5.228-5.213C101.3 2.334 98.96 0 96.072 0s-5.229 2.334-5.229 5.212c0 2.88 2.341 5.213 5.229 5.213z" fill="url(#paint7_linear)"/></g><mask id="e" maskUnits="userSpaceOnUse" x="121" y="0" width="11" height="11"><path d="M126.353 10.425c2.887 0 5.228-2.334 5.228-5.213 0-2.878-2.341-5.212-5.228-5.212-2.888 0-5.229 2.334-5.229 5.212 0 2.88 2.341 5.213 5.229 5.213z" fill="url(#paint8_linear)"/></mask><g mask="url(#e)"><path d="M126.353 10.425c2.887 0 5.228-2.334 5.228-5.213 0-2.878-2.341-5.212-5.228-5.212-2.888 0-5.229 2.334-5.229 5.212 0 2.88 2.341 5.213 5.229 5.213z" fill="url(#paint9_linear)"/></g><mask id="f" maskUnits="userSpaceOnUse" x="0" y="26" width="11" height="11"><path d="M5.228 36.596c2.888 0 5.229-2.334 5.229-5.213 0-2.878-2.341-5.212-5.229-5.212C2.341 26.17 0 28.505 0 31.383c0 2.88 2.34 5.213 5.228 5.213z" fill="url(#paint10_linear)"/></mask><g mask="url(#f)"><path d="M5.228 36.596c2.888 0 5.229-2.334 5.229-5.213 0-2.878-2.341-5.212-5.229-5.212C2.341 26.17 0 28.505 0 31.383c0 2.88 2.34 5.213 5.228 5.213z" fill="url(#paint11_linear)"/></g><mask id="g" maskUnits="userSpaceOnUse" x="30" y="26" width="11" height="11"><path d="M35.51 36.596c2.887 0 5.228-2.334 5.228-5.213 0-2.878-2.341-5.212-5.228-5.212-2.888 0-5.229 2.334-5.229 5.212 0 2.88 2.34 5.213 5.229 5.213z" fill="url(#paint12_linear)"/></mask><g mask="url(#g)"><path d="M35.51 36.596c2.887 0 5.228-2.334 5.228-5.213 0-2.878-2.341-5.212-5.228-5.212-2.888 0-5.229 2.334-5.229 5.212 0 2.88 2.34 5.213 5.229 5.213z" fill="url(#paint13_linear)"/></g><mask id="h" maskUnits="userSpaceOnUse" x="60" y="26" width="12" height="11"><path d="M65.79 36.596c2.888 0 5.229-2.334 5.229-5.213 0-2.878-2.34-5.212-5.229-5.212-2.887 0-5.228 2.334-5.228 5.212 0 2.88 2.341 5.213 5.228 5.213z" fill="url(#paint14_linear)"/></mask><g mask="url(#h)"><path d="M65.79 36.596c2.888 0 5.229-2.334 5.229-5.213 0-2.878-2.34-5.212-5.229-5.212-2.887 0-5.228 2.334-5.228 5.212 0 2.88 2.341 5.213 5.228 5.213z" fill="url(#paint15_linear)"/></g><mask id="i" maskUnits="userSpaceOnUse" x="90" y="26" width="12" height="11"><path d="M96.072 36.596c2.887 0 5.228-2.334 5.228-5.213 0-2.878-2.34-5.212-5.228-5.212s-5.229 2.334-5.229 5.212c0 2.88 2.341 5.213 5.229 5.213z" fill="url(#paint16_linear)"/></mask><g mask="url(#i)"><path d="M96.072 36.596c2.887 0 5.228-2.334 5.228-5.213 0-2.878-2.34-5.212-5.228-5.212s-5.229 2.334-5.229 5.212c0 2.88 2.341 5.213 5.229 5.213z" fill="url(#paint17_linear)"/></g><mask id="j" maskUnits="userSpaceOnUse" x="121" y="26" width="11" height="11"><path d="M126.353 36.596c2.887 0 5.228-2.334 5.228-5.213 0-2.878-2.341-5.212-5.228-5.212-2.888 0-5.229 2.334-5.229 5.212 0 2.88 2.341 5.213 5.229 5.213z" fill="url(#paint18_linear)"/></mask><g mask="url(#j)"><path d="M126.353 36.596c2.887 0 5.228-2.334 5.228-5.213 0-2.878-2.341-5.212-5.228-5.212-2.888 0-5.229 2.334-5.229 5.212 0 2.88 2.341 5.213 5.229 5.213z" fill="url(#paint19_linear)"/></g><mask id="k" maskUnits="userSpaceOnUse" x="0" y="52" width="11" height="11"><path d="M5.228 62.713c2.888 0 5.229-2.334 5.229-5.213s-2.341-5.212-5.229-5.212C2.341 52.288 0 54.62 0 57.5c0 2.879 2.34 5.213 5.228 5.213z" fill="url(#paint20_linear)"/></mask><g mask="url(#k)"><path d="M5.228 62.713c2.888 0 5.229-2.334 5.229-5.213s-2.341-5.212-5.229-5.212C2.341 52.288 0 54.62 0 57.5c0 2.879 2.34 5.213 5.228 5.213z" fill="url(#paint21_linear)"/></g><mask id="l" maskUnits="userSpaceOnUse" x="30" y="52" width="11" height="11"><path d="M35.51 62.713c2.887 0 5.228-2.334 5.228-5.213s-2.341-5.212-5.228-5.212c-2.888 0-5.229 2.333-5.229 5.212 0 2.879 2.34 5.213 5.229 5.213z" fill="url(#paint22_linear)"/></mask><g mask="url(#l)"><path d="M35.51 62.713c2.887 0 5.228-2.334 5.228-5.213s-2.341-5.212-5.228-5.212c-2.888 0-5.229 2.333-5.229 5.212 0 2.879 2.34 5.213 5.229 5.213z" fill="url(#paint23_linear)"/></g><mask id="m" maskUnits="userSpaceOnUse" x="60" y="52" width="12" height="11"><path d="M65.79 62.713c2.888 0 5.229-2.334 5.229-5.213s-2.34-5.212-5.229-5.212c-2.887 0-5.228 2.333-5.228 5.212 0 2.879 2.341 5.213 5.228 5.213z" fill="url(#paint24_linear)"/></mask><g mask="url(#m)"><path d="M65.79 62.713c2.888 0 5.229-2.334 5.229-5.213s-2.34-5.212-5.229-5.212c-2.887 0-5.228 2.333-5.228 5.212 0 2.879 2.341 5.213 5.228 5.213z" fill="url(#paint25_linear)"/></g><mask id="n" maskUnits="userSpaceOnUse" x="90" y="52" width="12" height="11"><path d="M96.072 62.713c2.887 0 5.228-2.334 5.228-5.213s-2.34-5.212-5.228-5.212-5.229 2.333-5.229 5.212c0 2.879 2.341 5.213 5.229 5.213z" fill="url(#paint26_linear)"/></mask><g mask="url(#n)"><path d="M96.072 62.713c2.887 0 5.228-2.334 5.228-5.213s-2.34-5.212-5.228-5.212-5.229 2.333-5.229 5.212c0 2.879 2.341 5.213 5.229 5.213z" fill="url(#paint27_linear)"/></g><mask id="o" maskUnits="userSpaceOnUse" x="121" y="52" width="11" height="11"><path d="M126.353 62.713c2.887 0 5.228-2.334 5.228-5.213s-2.341-5.212-5.228-5.212c-2.888 0-5.229 2.333-5.229 5.212 0 2.879 2.341 5.213 5.229 5.213z" fill="url(#paint28_linear)"/></mask><g mask="url(#o)"><path d="M126.353 62.713c2.887 0 5.228-2.334 5.228-5.213s-2.341-5.212-5.228-5.212c-2.888 0-5.229 2.333-5.229 5.212 0 2.879 2.341 5.213 5.229 5.213z" fill="url(#paint29_linear)"/></g><mask id="p" maskUnits="userSpaceOnUse" x="0" y="78" width="11" height="11"><path d="M5.228 88.883c2.888 0 5.229-2.333 5.229-5.212 0-2.879-2.341-5.213-5.229-5.213C2.341 78.459 0 80.793 0 83.671s2.34 5.212 5.228 5.212z" fill="url(#paint30_linear)"/></mask><g mask="url(#p)"><path d="M5.228 88.883c2.888 0 5.229-2.333 5.229-5.212 0-2.879-2.341-5.213-5.229-5.213C2.341 78.459 0 80.793 0 83.671s2.34 5.212 5.228 5.212z" fill="url(#paint31_linear)"/></g><mask id="q" maskUnits="userSpaceOnUse" x="30" y="78" width="11" height="11"><path d="M35.51 88.883c2.887 0 5.228-2.333 5.228-5.212 0-2.879-2.341-5.213-5.228-5.213-2.888 0-5.229 2.334-5.229 5.213s2.34 5.212 5.229 5.212z" fill="url(#paint32_linear)"/></mask><g mask="url(#q)"><path d="M35.51 88.883c2.887 0 5.228-2.333 5.228-5.212 0-2.879-2.341-5.213-5.228-5.213-2.888 0-5.229 2.334-5.229 5.213s2.34 5.212 5.229 5.212z" fill="url(#paint33_linear)"/></g><mask id="r" maskUnits="userSpaceOnUse" x="60" y="78" width="12" height="11"><path d="M65.79 88.883c2.888 0 5.229-2.333 5.229-5.212 0-2.879-2.34-5.213-5.229-5.213-2.887 0-5.228 2.334-5.228 5.213s2.341 5.212 5.228 5.212z" fill="url(#paint34_linear)"/></mask><g mask="url(#r)"><path d="M65.79 88.883c2.888 0 5.229-2.333 5.229-5.212 0-2.879-2.34-5.213-5.229-5.213-2.887 0-5.228 2.334-5.228 5.213s2.341 5.212 5.228 5.212z" fill="url(#paint35_linear)"/></g><mask id="s" maskUnits="userSpaceOnUse" x="90" y="78" width="12" height="11"><path d="M96.072 88.883c2.887 0 5.228-2.333 5.228-5.212 0-2.879-2.34-5.213-5.228-5.213s-5.229 2.334-5.229 5.213 2.341 5.212 5.229 5.212z" fill="url(#paint36_linear)"/></mask><g mask="url(#s)"><path d="M96.072 88.883c2.887 0 5.228-2.333 5.228-5.212 0-2.879-2.34-5.213-5.228-5.213s-5.229 2.334-5.229 5.213 2.341 5.212 5.229 5.212z" fill="url(#paint37_linear)"/></g><mask id="t" maskUnits="userSpaceOnUse" x="121" y="78" width="11" height="11"><path d="M126.353 88.883c2.887 0 5.228-2.333 5.228-5.212 0-2.879-2.341-5.213-5.228-5.213-2.888 0-5.229 2.334-5.229 5.213s2.341 5.212 5.229 5.212z" fill="url(#paint38_linear)"/></mask><g mask="url(#t)"><path d="M126.353 88.883c2.887 0 5.228-2.333 5.228-5.212 0-2.879-2.341-5.213-5.228-5.213-2.888 0-5.229 2.334-5.229 5.213s2.341 5.212 5.229 5.212z" fill="url(#paint39_linear)"/></g><mask id="u" maskUnits="userSpaceOnUse" x="0" y="104" width="11" height="11"><path d="M5.228 115c2.888 0 5.229-2.334 5.229-5.213 0-2.878-2.341-5.212-5.229-5.212-2.887 0-5.228 2.334-5.228 5.212C0 112.666 2.34 115 5.228 115z" fill="url(#paint40_linear)"/></mask><g mask="url(#u)"><path d="M5.228 115c2.888 0 5.229-2.334 5.229-5.213 0-2.878-2.341-5.212-5.229-5.212-2.887 0-5.228 2.334-5.228 5.212C0 112.666 2.34 115 5.228 115z" fill="url(#paint41_linear)"/></g><mask id="v" maskUnits="userSpaceOnUse" x="30" y="104" width="11" height="11"><path d="M35.51 115c2.887 0 5.228-2.334 5.228-5.213 0-2.878-2.341-5.212-5.228-5.212-2.888 0-5.229 2.334-5.229 5.212 0 2.879 2.34 5.213 5.229 5.213z" fill="url(#paint42_linear)"/></mask><g mask="url(#v)"><path d="M35.51 115c2.887 0 5.228-2.334 5.228-5.213 0-2.878-2.341-5.212-5.228-5.212-2.888 0-5.229 2.334-5.229 5.212 0 2.879 2.34 5.213 5.229 5.213z" fill="url(#paint43_linear)"/></g><mask id="w" maskUnits="userSpaceOnUse" x="60" y="104" width="12" height="11"><path d="M65.79 115c2.888 0 5.229-2.334 5.229-5.213 0-2.878-2.34-5.212-5.229-5.212-2.887 0-5.228 2.334-5.228 5.212 0 2.879 2.341 5.213 5.228 5.213z" fill="url(#paint44_linear)"/></mask><g mask="url(#w)"><path d="M65.79 115c2.888 0 5.229-2.334 5.229-5.213 0-2.878-2.34-5.212-5.229-5.212-2.887 0-5.228 2.334-5.228 5.212 0 2.879 2.341 5.213 5.228 5.213z" fill="url(#paint45_linear)"/></g><mask id="x" maskUnits="userSpaceOnUse" x="90" y="104" width="12" height="11"><path d="M96.072 115c2.887 0 5.228-2.334 5.228-5.213 0-2.878-2.34-5.212-5.228-5.212s-5.229 2.334-5.229 5.212c0 2.879 2.341 5.213 5.229 5.213z" fill="url(#paint46_linear)"/></mask><g mask="url(#x)"><path d="M96.072 115c2.887 0 5.228-2.334 5.228-5.213 0-2.878-2.34-5.212-5.228-5.212s-5.229 2.334-5.229 5.212c0 2.879 2.341 5.213 5.229 5.213z" fill="url(#paint47_linear)"/></g><mask id="y" maskUnits="userSpaceOnUse" x="121" y="104" width="11" height="11"><path d="M126.353 115c2.887 0 5.228-2.334 5.228-5.213 0-2.878-2.341-5.212-5.228-5.212-2.888 0-5.229 2.334-5.229 5.212 0 2.879 2.341 5.213 5.229 5.213z" fill="url(#paint48_linear)"/></mask><g mask="url(#y)"><path d="M126.353 115c2.887 0 5.228-2.334 5.228-5.213 0-2.878-2.341-5.212-5.228-5.212-2.888 0-5.229 2.334-5.229 5.212 0 2.879 2.341 5.213 5.229 5.213z" fill="url(#paint49_linear)"/></g></g><defs><linearGradient id="paint1_linear" x1="54.996" y1="131.134" x2="-16.406" y2="-50.67" gradientUnits="userSpaceOnUse"><stop stop-color="#fff"/><stop offset="1" stop-color="#fff"/></linearGradient><linearGradient id="paint25_linear" x1="115.558" y1="183.421" x2="44.157" y2="1.618" gradientUnits="userSpaceOnUse"><stop stop-color="#fff"/><stop offset="1" stop-color="#fff"/></linearGradient><linearGradient id="paint2_linear" x1="85.277" y1="131.134" x2="13.876" y2="-50.67" gradientUnits="userSpaceOnUse"><stop stop-color="#fff"/><stop offset="1" stop-color="#fff"/></linearGradient><linearGradient id="paint3_linear" x1="85.277" y1="131.134" x2="13.876" y2="-50.67" gradientUnits="userSpaceOnUse"><stop stop-color="#fff"/><stop offset="1" stop-color="#fff"/></linearGradient><linearGradient id="paint4_linear" x1="115.558" y1="131.134" x2="44.157" y2="-50.67" gradientUnits="userSpaceOnUse"><stop stop-color="#fff"/><stop offset="1" stop-color="#fff"/></linearGradient><linearGradient id="paint5_linear" x1="115.558" y1="131.134" x2="44.157" y2="-50.67" gradientUnits="userSpaceOnUse"><stop stop-color="#fff"/><stop offset="1" stop-color="#fff"/></linearGradient><linearGradient id="paint6_linear" x1="145.839" y1="131.134" x2="74.438" y2="-50.67" gradientUnits="userSpaceOnUse"><stop stop-color="#fff"/><stop offset="1" stop-color="#fff"/></linearGradient><linearGradient id="paint7_linear" x1="145.839" y1="131.134" x2="74.438" y2="-50.67" gradientUnits="userSpaceOnUse"><stop stop-color="#fff"/><stop offset="1" stop-color="#fff"/></linearGradient><linearGradient id="paint8_linear" x1="176.12" y1="131.134" x2="104.719" y2="-50.67" gradientUnits="userSpaceOnUse"><stop stop-color="#fff"/><stop offset="1" stop-color="#fff"/></linearGradient><linearGradient id="paint9_linear" x1="176.12" y1="131.134" x2="104.719" y2="-50.67" gradientUnits="userSpaceOnUse"><stop stop-color="#fff"/><stop offset="1" stop-color="#fff"/></linearGradient><linearGradient id="paint10_linear" x1="54.996" y1="157.303" x2="-16.404" y2="-24.499" gradientUnits="userSpaceOnUse"><stop stop-color="#fff"/><stop offset="1" stop-color="#fff"/></linearGradient><linearGradient id="paint11_linear" x1="54.996" y1="157.303" x2="-16.404" y2="-24.499" gradientUnits="userSpaceOnUse"><stop stop-color="#fff"/><stop offset="1" stop-color="#fff"/></linearGradient><linearGradient id="paint12_linear" x1="85.277" y1="157.303" x2="13.877" y2="-24.499" gradientUnits="userSpaceOnUse"><stop stop-color="#fff"/><stop offset="1" stop-color="#fff"/></linearGradient><linearGradient id="paint13_linear" x1="85.277" y1="157.303" x2="13.877" y2="-24.499" gradientUnits="userSpaceOnUse"><stop stop-color="#fff"/><stop offset="1" stop-color="#fff"/></linearGradient><linearGradient id="paint14_linear" x1="115.558" y1="157.303" x2="44.158" y2="-24.499" gradientUnits="userSpaceOnUse"><stop stop-color="#fff"/><stop offset="1" stop-color="#fff"/></linearGradient><linearGradient id="paint15_linear" x1="115.558" y1="157.303" x2="44.158" y2="-24.499" gradientUnits="userSpaceOnUse"><stop stop-color="#fff"/><stop offset="1" stop-color="#fff"/></linearGradient><linearGradient id="paint16_linear" x1="145.839" y1="157.303" x2="74.439" y2="-24.499" gradientUnits="userSpaceOnUse"><stop stop-color="#fff"/><stop offset="1" stop-color="#fff"/></linearGradient><linearGradient id="paint17_linear" x1="145.839" y1="157.303" x2="74.439" y2="-24.499" gradientUnits="userSpaceOnUse"><stop stop-color="#fff"/><stop offset="1" stop-color="#fff"/></linearGradient><linearGradient id="paint18_linear" x1="176.12" y1="157.303" x2="104.72" y2="-24.499" gradientUnits="userSpaceOnUse"><stop stop-color="#fff"/><stop offset="1" stop-color="#fff"/></linearGradient><linearGradient id="paint19_linear" x1="176.12" y1="157.303" x2="104.72" y2="-24.499" gradientUnits="userSpaceOnUse"><stop stop-color="#fff"/><stop offset="1" stop-color="#fff"/></linearGradient><linearGradient id="paint20_linear" x1="54.996" y1="183.421" x2="-16.406" y2="1.618" gradientUnits="userSpaceOnUse"><stop stop-color="#fff"/><stop offset="1" stop-color="#fff"/></linearGradient><linearGradient id="paint21_linear" x1="54.996" y1="183.421" x2="-16.406" y2="1.618" gradientUnits="userSpaceOnUse"><stop stop-color="#fff"/><stop offset="1" stop-color="#fff"/></linearGradient><linearGradient id="paint22_linear" x1="85.277" y1="183.421" x2="13.876" y2="1.618" gradientUnits="userSpaceOnUse"><stop stop-color="#fff"/><stop offset="1" stop-color="#fff"/></linearGradient><linearGradient id="paint23_linear" x1="85.277" y1="183.421" x2="13.876" y2="1.618" gradientUnits="userSpaceOnUse"><stop stop-color="#fff"/><stop offset="1" stop-color="#fff"/></linearGradient><linearGradient id="paint24_linear" x1="115.558" y1="183.421" x2="44.157" y2="1.618" gradientUnits="userSpaceOnUse"><stop stop-color="#fff"/><stop offset="1" stop-color="#fff"/></linearGradient><linearGradient id="paint0_linear" x1="54.996" y1="131.134" x2="-16.406" y2="-50.67" gradientUnits="userSpaceOnUse"><stop stop-color="#fff"/><stop offset="1" stop-color="#fff"/></linearGradient><linearGradient id="paint26_linear" x1="145.839" y1="183.421" x2="74.438" y2="1.618" gradientUnits="userSpaceOnUse"><stop stop-color="#fff"/><stop offset="1" stop-color="#fff"/></linearGradient><linearGradient id="paint27_linear" x1="145.839" y1="183.421" x2="74.438" y2="1.618" gradientUnits="userSpaceOnUse"><stop stop-color="#fff"/><stop offset="1" stop-color="#fff"/></linearGradient><linearGradient id="paint28_linear" x1="176.12" y1="183.421" x2="104.719" y2="1.618" gradientUnits="userSpaceOnUse"><stop stop-color="#fff"/><stop offset="1" stop-color="#fff"/></linearGradient><linearGradient id="paint29_linear" x1="176.12" y1="183.421" x2="104.719" y2="1.618" gradientUnits="userSpaceOnUse"><stop stop-color="#fff"/><stop offset="1" stop-color="#fff"/></linearGradient><linearGradient id="paint30_linear" x1="54.996" y1="209.592" x2="-16.406" y2="27.788" gradientUnits="userSpaceOnUse"><stop stop-color="#fff"/><stop offset="1" stop-color="#fff"/></linearGradient><linearGradient id="paint31_linear" x1="54.996" y1="209.592" x2="-16.406" y2="27.788" gradientUnits="userSpaceOnUse"><stop stop-color="#fff"/><stop offset="1" stop-color="#fff"/></linearGradient><linearGradient id="paint32_linear" x1="85.277" y1="209.592" x2="13.876" y2="27.788" gradientUnits="userSpaceOnUse"><stop stop-color="#fff"/><stop offset="1" stop-color="#fff"/></linearGradient><linearGradient id="paint33_linear" x1="85.277" y1="209.592" x2="13.876" y2="27.788" gradientUnits="userSpaceOnUse"><stop stop-color="#fff"/><stop offset="1" stop-color="#fff"/></linearGradient><linearGradient id="paint34_linear" x1="115.558" y1="209.592" x2="44.157" y2="27.788" gradientUnits="userSpaceOnUse"><stop stop-color="#fff"/><stop offset="1" stop-color="#fff"/></linearGradient><linearGradient id="paint35_linear" x1="115.558" y1="209.592" x2="44.157" y2="27.788" gradientUnits="userSpaceOnUse"><stop stop-color="#fff"/><stop offset="1" stop-color="#fff"/></linearGradient><linearGradient id="paint36_linear" x1="145.839" y1="209.592" x2="74.438" y2="27.788" gradientUnits="userSpaceOnUse"><stop stop-color="#fff"/><stop offset="1" stop-color="#fff"/></linearGradient><linearGradient id="paint37_linear" x1="145.839" y1="209.592" x2="74.438" y2="27.788" gradientUnits="userSpaceOnUse"><stop stop-color="#fff"/><stop offset="1" stop-color="#fff"/></linearGradient><linearGradient id="paint38_linear" x1="176.12" y1="209.592" x2="104.719" y2="27.788" gradientUnits="userSpaceOnUse"><stop stop-color="#fff"/><stop offset="1" stop-color="#fff"/></linearGradient><linearGradient id="paint39_linear" x1="176.12" y1="209.592" x2="104.719" y2="27.788" gradientUnits="userSpaceOnUse"><stop stop-color="#fff"/><stop offset="1" stop-color="#fff"/></linearGradient><linearGradient id="paint40_linear" x1="54.996" y1="235.709" x2="-16.406" y2="53.905" gradientUnits="userSpaceOnUse"><stop stop-color="#fff"/><stop offset="1" stop-color="#fff"/></linearGradient><linearGradient id="paint41_linear" x1="54.996" y1="235.709" x2="-16.406" y2="53.905" gradientUnits="userSpaceOnUse"><stop stop-color="#fff"/><stop offset="1" stop-color="#fff"/></linearGradient><linearGradient id="paint42_linear" x1="85.277" y1="235.709" x2="13.876" y2="53.905" gradientUnits="userSpaceOnUse"><stop stop-color="#fff"/><stop offset="1" stop-color="#fff"/></linearGradient><linearGradient id="paint43_linear" x1="85.277" y1="235.709" x2="13.876" y2="53.905" gradientUnits="userSpaceOnUse"><stop stop-color="#fff"/><stop offset="1" stop-color="#fff"/></linearGradient><linearGradient id="paint44_linear" x1="115.558" y1="235.709" x2="44.157" y2="53.905" gradientUnits="userSpaceOnUse"><stop stop-color="#fff"/><stop offset="1" stop-color="#fff"/></linearGradient><linearGradient id="paint45_linear" x1="115.558" y1="235.709" x2="44.157" y2="53.905" gradientUnits="userSpaceOnUse"><stop stop-color="#fff"/><stop offset="1" stop-color="#fff"/></linearGradient><linearGradient id="paint46_linear" x1="145.839" y1="235.709" x2="74.438" y2="53.905" gradientUnits="userSpaceOnUse"><stop stop-color="#fff"/><stop offset="1" stop-color="#fff"/></linearGradient><linearGradient id="paint47_linear" x1="145.839" y1="235.709" x2="74.438" y2="53.905" gradientUnits="userSpaceOnUse"><stop stop-color="#fff"/><stop offset="1" stop-color="#fff"/></linearGradient><linearGradient id="paint48_linear" x1="176.12" y1="235.709" x2="104.719" y2="53.905" gradientUnits="userSpaceOnUse"><stop stop-color="#fff"/><stop offset="1" stop-color="#fff"/></linearGradient><linearGradient id="paint49_linear" x1="176.12" y1="235.709" x2="104.719" y2="53.905" gradientUnits="userSpaceOnUse"><stop stop-color="#fff"/><stop offset="1" stop-color="#fff"/></linearGradient></defs></svg>